<svg xmlns="http://www.w3.org/2000/svg" viewBox="0 0 1200 1400" role="img" aria-label="Abstract gallery sculpture">
  <defs>
    <linearGradient id="wall" x1="0" y1="0" x2="1" y2="1">
      <stop offset="0" stop-color="#f2eadc"/>
      <stop offset="0.55" stop-color="#d8d0c3"/>
      <stop offset="1" stop-color="#b3ad9f"/>
    </linearGradient>
    <linearGradient id="bronze" x1="0" y1="0" x2="1" y2="1">
      <stop offset="0" stop-color="#d7b46a"/>
      <stop offset="0.38" stop-color="#7d6a3a"/>
      <stop offset="0.7" stop-color="#204c42"/>
      <stop offset="1" stop-color="#111313"/>
    </linearGradient>
    <radialGradient id="glow" cx="42%" cy="28%" r="62%">
      <stop offset="0" stop-color="#fffaf2" stop-opacity=".75"/>
      <stop offset="1" stop-color="#fffaf2" stop-opacity="0"/>
    </radialGradient>
    <filter id="shadow" x="-20%" y="-20%" width="140%" height="140%">
      <feDropShadow dx="0" dy="34" stdDeviation="28" flood-color="#171515" flood-opacity=".32"/>
    </filter>
  </defs>
  <rect width="1200" height="1400" fill="url(#wall)"/>
  <rect width="1200" height="1400" fill="url(#glow)"/>
  <path d="M0 1040c224-98 421-114 651-50 192 53 358 49 549-21v431H0z" fill="#171515" opacity=".18"/>
  <g filter="url(#shadow)">
    <rect x="314" y="1112" width="572" height="74" rx="2" fill="#23201d"/>
    <rect x="391" y="1002" width="418" height="130" rx="4" fill="#e9dfd1"/>
    <path d="M567 925c-77-83-107-177-87-282 18-95 71-180 160-253 80-65 118-134 113-207 91 65 151 141 180 230 32 96 25 191-20 286-42 88-107 164-196 226z" fill="url(#bronze)"/>
    <path d="M632 332c-34 110-11 197 70 260 84 65 105 155 64 270 126-124 174-246 142-365-25-94-88-149-190-165-29-5-58-5-86 0z" fill="#fffaf2" opacity=".16"/>
    <path d="M531 633c0-102 55-186 164-252-66 16-124 50-173 101-78 82-102 178-72 290 24 91 82 161 174 210-62-100-93-216-93-349z" fill="#0c1110" opacity=".22"/>
    <circle cx="670" cy="676" r="82" fill="#f7f1e7" opacity=".9"/>
    <circle cx="670" cy="676" r="43" fill="#171515" opacity=".12"/>
  </g>
</svg>
