<svg xmlns="http://www.w3.org/2000/svg" viewBox="0 0 900 940" role="img" aria-label="Carved marble arch sculpture">
  <defs>
    <linearGradient id="bg" x1="0" y1="0" x2="1" y2="1">
      <stop offset="0" stop-color="#fffaf2"/>
      <stop offset="1" stop-color="#c9c2b8"/>
    </linearGradient>
    <linearGradient id="stone" x1="0" y1="0" x2="1" y2="1">
      <stop offset="0" stop-color="#fbf8ef"/>
      <stop offset=".52" stop-color="#cfc9bd"/>
      <stop offset="1" stop-color="#8b887f"/>
    </linearGradient>
  </defs>
  <rect width="900" height="940" fill="url(#bg)"/>
  <ellipse cx="450" cy="800" rx="284" ry="44" fill="#171515" opacity=".1"/>
  <rect x="260" y="750" width="380" height="50" fill="#e3dbce"/>
  <path d="M278 716V447c0-170 77-263 194-263s197 93 197 263v269H548V445c0-96-28-144-78-144s-76 48-76 144v271z" fill="url(#stone)"/>
  <path d="M394 445c0-96 26-144 76-144 24 0 43 11 56 33-62 28-96 91-101 188-2 54-2 119 0 194h-31z" fill="#fffaf2" opacity=".38"/>
  <path d="M621 270c32 45 48 104 48 177v269H548v-70c48-29 71-82 70-161z" fill="#171515" opacity=".08"/>
</svg>
