<svg xmlns="http://www.w3.org/2000/svg" viewBox="0 0 900 940" role="img" aria-label="Textured raku ceramic sculpture">
  <defs>
    <linearGradient id="bg" x1="0" y1="0" x2="1" y2="1">
      <stop offset="0" stop-color="#f5ecdf"/>
      <stop offset="1" stop-color="#d2c1ae"/>
    </linearGradient>
    <linearGradient id="clay" x1=".2" y1=".1" x2=".8" y2="1">
      <stop offset="0" stop-color="#f1c39c"/>
      <stop offset=".36" stop-color="#b75b3f"/>
      <stop offset=".72" stop-color="#4d352d"/>
      <stop offset="1" stop-color="#171515"/>
    </linearGradient>
    <filter id="grain">
      <feTurbulence type="fractalNoise" baseFrequency=".9" numOctaves="2" stitchTiles="stitch"/>
      <feColorMatrix type="saturate" values="0"/>
      <feComponentTransfer>
        <feFuncA type="table" tableValues="0 .16"/>
      </feComponentTransfer>
      <feBlend mode="multiply" in2="SourceGraphic"/>
    </filter>
  </defs>
  <rect width="900" height="940" fill="url(#bg)"/>
  <ellipse cx="450" cy="795" rx="245" ry="43" fill="#171515" opacity=".12"/>
  <path d="M304 726c-28-88-11-164 52-228 45-46 60-94 44-145-15-48-6-92 27-131 33-40 78-54 136-44-39 63-36 121 9 174 51 60 73 130 64 211-9 85-53 144-132 177-66 28-132 23-200-14z" fill="url(#clay)" filter="url(#grain)"/>
  <path d="M388 336c90 36 144 96 162 180 15 72 2 142-38 210 85-41 128-108 130-200 2-70-21-129-68-178-47-49-63-103-48-163-58 4-104 54-138 151z" fill="#fffaf2" opacity=".16"/>
  <path d="M378 431c65-16 122-8 171 24" fill="none" stroke="#2f241f" stroke-width="18" stroke-linecap="round" opacity=".28"/>
  <path d="M329 569c88 28 180 27 277-2" fill="none" stroke="#fffaf2" stroke-width="14" stroke-linecap="round" opacity=".2"/>
</svg>
